<svg xmlns="http://www.w3.org/2000/svg" version="1.1" xmlns:xlink="http://www.w3.org/1999/xlink" xmlns:svgjs="http://svgjs.dev/svgjs" viewBox="0 0 800 800" width="800" height="800"><g stroke-width="1.25" stroke="hsla(0, 0%, 22%, 0.71)" fill="none"><rect width="7.368421052631579" height="7.368421052631579" x="-3.6842105263157894" y="-3.6842105263157894" fill="hsla(0, 0%, 22%, 0.71)" stroke="none" transform="rotate(45, 0, 0)"></rect><rect width="7.368421052631579" height="7.368421052631579" x="76.3157894736842" y="-3.6842105263157894" fill="hsla(0, 0%, 22%, 0.71)" stroke="none" transform="rotate(45, 80, 0)"></rect><rect width="7.368421052631579" height="7.368421052631579" x="156.31578947368422" y="-3.6842105263157894" fill="hsla(0, 0%, 22%, 0.71)" stroke="none" transform="rotate(45, 160, 0)"></rect><rect width="7.368421052631579" height="7.368421052631579" x="236.31578947368422" y="-3.6842105263157894" fill="hsla(0, 0%, 22%, 0.71)" stroke="none" transform="rotate(45, 240, 0)"></rect><rect width="7.368421052631579" height="7.368421052631579" x="316.3157894736842" y="-3.6842105263157894" fill="hsla(0, 0%, 22%, 0.71)" stroke="none" transform="rotate(45, 320, 0)"></rect><rect width="7.368421052631579" height="7.368421052631579" x="396.3157894736842" y="-3.6842105263157894" fill="hsla(0, 0%, 22%, 0.71)" stroke="none" transform="rotate(45, 400, 0)"></rect><rect width="7.368421052631579" height="7.368421052631579" x="476.3157894736842" y="-3.6842105263157894" fill="hsla(0, 0%, 22%, 0.71)" stroke="none" transform="rotate(45, 480, 0)"></rect><rect width="7.368421052631579" height="7.368421052631579" x="556.3157894736842" y="-3.6842105263157894" fill="hsla(0, 0%, 22%, 0.71)" stroke="none" transform="rotate(45, 560, 0)"></rect><rect width="7.368421052631579" height="7.368421052631579" x="636.3157894736842" y="-3.6842105263157894" fill="hsla(0, 0%, 22%, 0.71)" stroke="none" transform="rotate(45, 640, 0)"></rect><rect width="7.368421052631579" height="7.368421052631579" x="716.3157894736842" y="-3.6842105263157894" fill="hsla(0, 0%, 22%, 0.71)" stroke="none" transform="rotate(45, 720, 0)"></rect><rect width="7.368421052631579" height="7.368421052631579" x="796.3157894736842" y="-3.6842105263157894" fill="hsla(0, 0%, 22%, 0.71)" stroke="none" transform="rotate(45, 800, 0)"></rect><rect width="7.368421052631579" height="7.368421052631579" x="-3.6842105263157894" y="96.3157894736842" fill="hsla(0, 0%, 22%, 0.71)" stroke="none" transform="rotate(45, 0, 100)"></rect><rect width="7.368421052631579" height="7.368421052631579" x="76.3157894736842" y="96.3157894736842" fill="hsla(0, 0%, 22%, 0.71)" stroke="none" transform="rotate(45, 80, 100)"></rect><rect width="7.368421052631579" height="7.368421052631579" x="156.31578947368422" y="96.3157894736842" fill="hsla(0, 0%, 22%, 0.71)" stroke="none" transform="rotate(45, 160, 100)"></rect><rect width="7.368421052631579" height="7.368421052631579" x="236.31578947368422" y="96.3157894736842" fill="hsla(0, 0%, 22%, 0.71)" stroke="none" transform="rotate(45, 240, 100)"></rect><rect width="7.368421052631579" height="7.368421052631579" x="316.3157894736842" y="96.3157894736842" fill="hsla(0, 0%, 22%, 0.71)" stroke="none" transform="rotate(45, 320, 100)"></rect><rect width="7.368421052631579" height="7.368421052631579" x="396.3157894736842" y="96.3157894736842" fill="hsla(0, 0%, 22%, 0.71)" stroke="none" transform="rotate(45, 400, 100)"></rect><rect width="7.368421052631579" height="7.368421052631579" x="476.3157894736842" y="96.3157894736842" fill="hsla(0, 0%, 22%, 0.71)" stroke="none" transform="rotate(45, 480, 100)"></rect><rect width="7.368421052631579" height="7.368421052631579" x="556.3157894736842" y="96.3157894736842" fill="hsla(0, 0%, 22%, 0.71)" stroke="none" transform="rotate(45, 560, 100)"></rect><rect width="7.368421052631579" height="7.368421052631579" x="636.3157894736842" y="96.3157894736842" fill="hsla(0, 0%, 22%, 0.71)" stroke="none" transform="rotate(45, 640, 100)"></rect><rect width="7.368421052631579" height="7.368421052631579" x="716.3157894736842" y="96.3157894736842" fill="hsla(0, 0%, 22%, 0.71)" stroke="none" transform="rotate(45, 720, 100)"></rect><rect width="7.368421052631579" height="7.368421052631579" x="796.3157894736842" y="96.3157894736842" fill="hsla(0, 0%, 22%, 0.71)" stroke="none" transform="rotate(45, 800, 100)"></rect><rect width="7.368421052631579" height="7.368421052631579" x="-3.6842105263157894" y="196.31578947368422" fill="hsla(0, 0%, 22%, 0.71)" stroke="none" transform="rotate(45, 0, 200)"></rect><rect width="7.368421052631579" height="7.368421052631579" x="76.3157894736842" y="196.31578947368422" fill="hsla(0, 0%, 22%, 0.71)" stroke="none" transform="rotate(45, 80, 200)"></rect><rect width="7.368421052631579" height="7.368421052631579" x="156.31578947368422" y="196.31578947368422" fill="hsla(0, 0%, 22%, 0.71)" stroke="none" transform="rotate(45, 160, 200)"></rect><rect width="7.368421052631579" height="7.368421052631579" x="236.31578947368422" y="196.31578947368422" fill="hsla(0, 0%, 22%, 0.71)" stroke="none" transform="rotate(45, 240, 200)"></rect><rect width="7.368421052631579" height="7.368421052631579" x="316.3157894736842" y="196.31578947368422" fill="hsla(0, 0%, 22%, 0.71)" stroke="none" transform="rotate(45, 320, 200)"></rect><rect width="7.368421052631579" height="7.368421052631579" x="396.3157894736842" y="196.31578947368422" fill="hsla(0, 0%, 22%, 0.71)" stroke="none" transform="rotate(45, 400, 200)"></rect><rect width="7.368421052631579" height="7.368421052631579" x="476.3157894736842" y="196.31578947368422" fill="hsla(0, 0%, 22%, 0.71)" stroke="none" transform="rotate(45, 480, 200)"></rect><rect width="7.368421052631579" height="7.368421052631579" x="556.3157894736842" y="196.31578947368422" fill="hsla(0, 0%, 22%, 0.71)" stroke="none" transform="rotate(45, 560, 200)"></rect><rect width="7.368421052631579" height="7.368421052631579" x="636.3157894736842" y="196.31578947368422" fill="hsla(0, 0%, 22%, 0.71)" stroke="none" transform="rotate(45, 640, 200)"></rect><rect width="7.368421052631579" height="7.368421052631579" x="716.3157894736842" y="196.31578947368422" fill="hsla(0, 0%, 22%, 0.71)" stroke="none" transform="rotate(45, 720, 200)"></rect><rect width="7.368421052631579" height="7.368421052631579" x="796.3157894736842" y="196.31578947368422" fill="hsla(0, 0%, 22%, 0.71)" stroke="none" transform="rotate(45, 800, 200)"></rect><rect width="7.368421052631579" height="7.368421052631579" x="-3.6842105263157894" y="296.3157894736842" fill="hsla(0, 0%, 22%, 0.71)" stroke="none" transform="rotate(45, 0, 300)"></rect><rect width="7.368421052631579" height="7.368421052631579" x="76.3157894736842" y="296.3157894736842" fill="hsla(0, 0%, 22%, 0.71)" stroke="none" transform="rotate(45, 80, 300)"></rect><rect width="7.368421052631579" height="7.368421052631579" x="156.31578947368422" y="296.3157894736842" fill="hsla(0, 0%, 22%, 0.71)" stroke="none" transform="rotate(45, 160, 300)"></rect><rect width="7.368421052631579" height="7.368421052631579" x="236.31578947368422" y="296.3157894736842" fill="hsla(0, 0%, 22%, 0.71)" stroke="none" transform="rotate(45, 240, 300)"></rect><rect width="7.368421052631579" height="7.368421052631579" x="316.3157894736842" y="296.3157894736842" fill="hsla(0, 0%, 22%, 0.71)" stroke="none" transform="rotate(45, 320, 300)"></rect><rect width="7.368421052631579" height="7.368421052631579" x="396.3157894736842" y="296.3157894736842" fill="hsla(0, 0%, 22%, 0.71)" stroke="none" transform="rotate(45, 400, 300)"></rect><rect width="7.368421052631579" height="7.368421052631579" x="476.3157894736842" y="296.3157894736842" fill="hsla(0, 0%, 22%, 0.71)" stroke="none" transform="rotate(45, 480, 300)"></rect><rect width="7.368421052631579" height="7.368421052631579" x="556.3157894736842" y="296.3157894736842" fill="hsla(0, 0%, 22%, 0.71)" stroke="none" transform="rotate(45, 560, 300)"></rect><rect width="7.368421052631579" height="7.368421052631579" x="636.3157894736842" y="296.3157894736842" fill="hsla(0, 0%, 22%, 0.71)" stroke="none" transform="rotate(45, 640, 300)"></rect><rect width="7.368421052631579" height="7.368421052631579" x="716.3157894736842" y="296.3157894736842" fill="hsla(0, 0%, 22%, 0.71)" stroke="none" transform="rotate(45, 720, 300)"></rect><rect width="7.368421052631579" height="7.368421052631579" x="796.3157894736842" y="296.3157894736842" fill="hsla(0, 0%, 22%, 0.71)" stroke="none" transform="rotate(45, 800, 300)"></rect><rect width="7.368421052631579" height="7.368421052631579" x="-3.6842105263157894" y="396.3157894736842" fill="hsla(0, 0%, 22%, 0.71)" stroke="none" transform="rotate(45, 0, 400)"></rect><rect width="7.368421052631579" height="7.368421052631579" x="76.3157894736842" y="396.3157894736842" fill="hsla(0, 0%, 22%, 0.71)" stroke="none" transform="rotate(45, 80, 400)"></rect><rect width="7.368421052631579" height="7.368421052631579" x="156.31578947368422" y="396.3157894736842" fill="hsla(0, 0%, 22%, 0.71)" stroke="none" transform="rotate(45, 160, 400)"></rect><rect width="7.368421052631579" height="7.368421052631579" x="236.31578947368422" y="396.3157894736842" fill="hsla(0, 0%, 22%, 0.71)" stroke="none" transform="rotate(45, 240, 400)"></rect><rect width="7.368421052631579" height="7.368421052631579" x="316.3157894736842" y="396.3157894736842" fill="hsla(0, 0%, 22%, 0.71)" stroke="none" transform="rotate(45, 320, 400)"></rect><rect width="7.368421052631579" height="7.368421052631579" x="396.3157894736842" y="396.3157894736842" fill="hsla(0, 0%, 22%, 0.71)" stroke="none" transform="rotate(45, 400, 400)"></rect><rect width="7.368421052631579" height="7.368421052631579" x="476.3157894736842" y="396.3157894736842" fill="hsla(0, 0%, 22%, 0.71)" stroke="none" transform="rotate(45, 480, 400)"></rect><rect width="7.368421052631579" height="7.368421052631579" x="556.3157894736842" y="396.3157894736842" fill="hsla(0, 0%, 22%, 0.71)" stroke="none" transform="rotate(45, 560, 400)"></rect><rect width="7.368421052631579" height="7.368421052631579" x="636.3157894736842" y="396.3157894736842" fill="hsla(0, 0%, 22%, 0.71)" stroke="none" transform="rotate(45, 640, 400)"></rect><rect width="7.368421052631579" height="7.368421052631579" x="716.3157894736842" y="396.3157894736842" fill="hsla(0, 0%, 22%, 0.71)" stroke="none" transform="rotate(45, 720, 400)"></rect><rect width="7.368421052631579" height="7.368421052631579" x="796.3157894736842" y="396.3157894736842" fill="hsla(0, 0%, 22%, 0.71)" stroke="none" transform="rotate(45, 800, 400)"></rect><rect width="7.368421052631579" height="7.368421052631579" x="-3.6842105263157894" y="496.3157894736842" fill="hsla(0, 0%, 22%, 0.71)" stroke="none" transform="rotate(45, 0, 500)"></rect><rect width="7.368421052631579" height="7.368421052631579" x="76.3157894736842" y="496.3157894736842" fill="hsla(0, 0%, 22%, 0.71)" stroke="none" transform="rotate(45, 80, 500)"></rect><rect width="7.368421052631579" height="7.368421052631579" x="156.31578947368422" y="496.3157894736842" fill="hsla(0, 0%, 22%, 0.71)" stroke="none" transform="rotate(45, 160, 500)"></rect><rect width="7.368421052631579" height="7.368421052631579" x="236.31578947368422" y="496.3157894736842" fill="hsla(0, 0%, 22%, 0.71)" stroke="none" transform="rotate(45, 240, 500)"></rect><rect width="7.368421052631579" height="7.368421052631579" x="316.3157894736842" y="496.3157894736842" fill="hsla(0, 0%, 22%, 0.71)" stroke="none" transform="rotate(45, 320, 500)"></rect><rect width="7.368421052631579" height="7.368421052631579" x="396.3157894736842" y="496.3157894736842" fill="hsla(0, 0%, 22%, 0.71)" stroke="none" transform="rotate(45, 400, 500)"></rect><rect width="7.368421052631579" height="7.368421052631579" x="476.3157894736842" y="496.3157894736842" fill="hsla(0, 0%, 22%, 0.71)" stroke="none" transform="rotate(45, 480, 500)"></rect><rect width="7.368421052631579" height="7.368421052631579" x="556.3157894736842" y="496.3157894736842" fill="hsla(0, 0%, 22%, 0.71)" stroke="none" transform="rotate(45, 560, 500)"></rect><rect width="7.368421052631579" height="7.368421052631579" x="636.3157894736842" y="496.3157894736842" fill="hsla(0, 0%, 22%, 0.71)" stroke="none" transform="rotate(45, 640, 500)"></rect><rect width="7.368421052631579" height="7.368421052631579" x="716.3157894736842" y="496.3157894736842" fill="hsla(0, 0%, 22%, 0.71)" stroke="none" transform="rotate(45, 720, 500)"></rect><rect width="7.368421052631579" height="7.368421052631579" x="796.3157894736842" y="496.3157894736842" fill="hsla(0, 0%, 22%, 0.71)" stroke="none" transform="rotate(45, 800, 500)"></rect><rect width="7.368421052631579" height="7.368421052631579" x="-3.6842105263157894" y="596.3157894736842" fill="hsla(0, 0%, 22%, 0.71)" stroke="none" transform="rotate(45, 0, 600)"></rect><rect width="7.368421052631579" height="7.368421052631579" x="76.3157894736842" y="596.3157894736842" fill="hsla(0, 0%, 22%, 0.71)" stroke="none" transform="rotate(45, 80, 600)"></rect><rect width="7.368421052631579" height="7.368421052631579" x="156.31578947368422" y="596.3157894736842" fill="hsla(0, 0%, 22%, 0.71)" stroke="none" transform="rotate(45, 160, 600)"></rect><rect width="7.368421052631579" height="7.368421052631579" x="236.31578947368422" y="596.3157894736842" fill="hsla(0, 0%, 22%, 0.71)" stroke="none" transform="rotate(45, 240, 600)"></rect><rect width="7.368421052631579" height="7.368421052631579" x="316.3157894736842" y="596.3157894736842" fill="hsla(0, 0%, 22%, 0.71)" stroke="none" transform="rotate(45, 320, 600)"></rect><rect width="7.368421052631579" height="7.368421052631579" x="396.3157894736842" y="596.3157894736842" fill="hsla(0, 0%, 22%, 0.71)" stroke="none" transform="rotate(45, 400, 600)"></rect><rect width="7.368421052631579" height="7.368421052631579" x="476.3157894736842" y="596.3157894736842" fill="hsla(0, 0%, 22%, 0.71)" stroke="none" transform="rotate(45, 480, 600)"></rect><rect width="7.368421052631579" height="7.368421052631579" x="556.3157894736842" y="596.3157894736842" fill="hsla(0, 0%, 22%, 0.71)" stroke="none" transform="rotate(45, 560, 600)"></rect><rect width="7.368421052631579" height="7.368421052631579" x="636.3157894736842" y="596.3157894736842" fill="hsla(0, 0%, 22%, 0.71)" stroke="none" transform="rotate(45, 640, 600)"></rect><rect width="7.368421052631579" height="7.368421052631579" x="716.3157894736842" y="596.3157894736842" fill="hsla(0, 0%, 22%, 0.71)" stroke="none" transform="rotate(45, 720, 600)"></rect><rect width="7.368421052631579" height="7.368421052631579" x="796.3157894736842" y="596.3157894736842" fill="hsla(0, 0%, 22%, 0.71)" stroke="none" transform="rotate(45, 800, 600)"></rect><rect width="7.368421052631579" height="7.368421052631579" x="-3.6842105263157894" y="696.3157894736842" fill="hsla(0, 0%, 22%, 0.71)" stroke="none" transform="rotate(45, 0, 700)"></rect><rect width="7.368421052631579" height="7.368421052631579" x="76.3157894736842" y="696.3157894736842" fill="hsla(0, 0%, 22%, 0.71)" stroke="none" transform="rotate(45, 80, 700)"></rect><rect width="7.368421052631579" height="7.368421052631579" x="156.31578947368422" y="696.3157894736842" fill="hsla(0, 0%, 22%, 0.71)" stroke="none" transform="rotate(45, 160, 700)"></rect><rect width="7.368421052631579" height="7.368421052631579" x="236.31578947368422" y="696.3157894736842" fill="hsla(0, 0%, 22%, 0.71)" stroke="none" transform="rotate(45, 240, 700)"></rect><rect width="7.368421052631579" height="7.368421052631579" x="316.3157894736842" y="696.3157894736842" fill="hsla(0, 0%, 22%, 0.71)" stroke="none" transform="rotate(45, 320, 700)"></rect><rect width="7.368421052631579" height="7.368421052631579" x="396.3157894736842" y="696.3157894736842" fill="hsla(0, 0%, 22%, 0.71)" stroke="none" transform="rotate(45, 400, 700)"></rect><rect width="7.368421052631579" height="7.368421052631579" x="476.3157894736842" y="696.3157894736842" fill="hsla(0, 0%, 22%, 0.71)" stroke="none" transform="rotate(45, 480, 700)"></rect><rect width="7.368421052631579" height="7.368421052631579" x="556.3157894736842" y="696.3157894736842" fill="hsla(0, 0%, 22%, 0.71)" stroke="none" transform="rotate(45, 560, 700)"></rect><rect width="7.368421052631579" height="7.368421052631579" x="636.3157894736842" y="696.3157894736842" fill="hsla(0, 0%, 22%, 0.71)" stroke="none" transform="rotate(45, 640, 700)"></rect><rect width="7.368421052631579" height="7.368421052631579" x="716.3157894736842" y="696.3157894736842" fill="hsla(0, 0%, 22%, 0.71)" stroke="none" transform="rotate(45, 720, 700)"></rect><rect width="7.368421052631579" height="7.368421052631579" x="796.3157894736842" y="696.3157894736842" fill="hsla(0, 0%, 22%, 0.71)" stroke="none" transform="rotate(45, 800, 700)"></rect><rect width="7.368421052631579" height="7.368421052631579" x="-3.6842105263157894" y="796.3157894736842" fill="hsla(0, 0%, 22%, 0.71)" stroke="none" transform="rotate(45, 0, 800)"></rect><rect width="7.368421052631579" height="7.368421052631579" x="76.3157894736842" y="796.3157894736842" fill="hsla(0, 0%, 22%, 0.71)" stroke="none" transform="rotate(45, 80, 800)"></rect><rect width="7.368421052631579" height="7.368421052631579" x="156.31578947368422" y="796.3157894736842" fill="hsla(0, 0%, 22%, 0.71)" stroke="none" transform="rotate(45, 160, 800)"></rect><rect width="7.368421052631579" height="7.368421052631579" x="236.31578947368422" y="796.3157894736842" fill="hsla(0, 0%, 22%, 0.71)" stroke="none" transform="rotate(45, 240, 800)"></rect><rect width="7.368421052631579" height="7.368421052631579" x="316.3157894736842" y="796.3157894736842" fill="hsla(0, 0%, 22%, 0.71)" stroke="none" transform="rotate(45, 320, 800)"></rect><rect width="7.368421052631579" height="7.368421052631579" x="396.3157894736842" y="796.3157894736842" fill="hsla(0, 0%, 22%, 0.71)" stroke="none" transform="rotate(45, 400, 800)"></rect><rect width="7.368421052631579" height="7.368421052631579" x="476.3157894736842" y="796.3157894736842" fill="hsla(0, 0%, 22%, 0.71)" stroke="none" transform="rotate(45, 480, 800)"></rect><rect width="7.368421052631579" height="7.368421052631579" x="556.3157894736842" y="796.3157894736842" fill="hsla(0, 0%, 22%, 0.71)" stroke="none" transform="rotate(45, 560, 800)"></rect><rect width="7.368421052631579" height="7.368421052631579" x="636.3157894736842" y="796.3157894736842" fill="hsla(0, 0%, 22%, 0.71)" stroke="none" transform="rotate(45, 640, 800)"></rect><rect width="7.368421052631579" height="7.368421052631579" x="716.3157894736842" y="796.3157894736842" fill="hsla(0, 0%, 22%, 0.71)" stroke="none" transform="rotate(45, 720, 800)"></rect><rect width="7.368421052631579" height="7.368421052631579" x="796.3157894736842" y="796.3157894736842" fill="hsla(0, 0%, 22%, 0.71)" stroke="none" transform="rotate(45, 800, 800)"></rect></g></svg>