<svg xmlns="http://www.w3.org/2000/svg" version="1.1" xmlns:xlink="http://www.w3.org/1999/xlink" xmlns:svgjs="http://svgjs.dev/svgjs" viewBox="0 0 800 800" opacity="0.24"><defs><linearGradient x1="50%" y1="0%" x2="50%" y2="100%" id="uundulate-grad"><stop stop-color="hsl(0, 0%, 15%)" stop-opacity="1" offset="45%"></stop><stop stop-color="hsl(0, 0%, 48%)" stop-opacity="1" offset="100%"></stop></linearGradient></defs><g stroke-width="2" stroke="url(#uundulate-grad)" fill="none"><path d="M1300.3633644378851 559.5391849298701C1224.458461347299 916.4259264992631 1218.269311612382 1006.2527876269771 1041.0495840645563 1161.9342510737933C863.8298565167299 1317.6157145206098 805.1829659283051 1284.745095123436 449.7086722083179 1306.8102094745855C94.234378488331 1328.875323825736 -559.3100153984425 1471.0331869920383 -665.2270257913797 1267.846799959314C-771.144036184317 1064.6604129265897 -280.34678973381835 610.2958063412509 -58.69297767778016 331.5155517175085C162.9608343782579 52.73529709376612 93.69333529070013 113.58442363551467 398.71127207760605 -70.29842223465175C703.729208864512 -254.18126810481817 1217.5489329909774 -682.338276618568 1405.3931188993693 -551.1221084592925C1593.2373048077607 -419.90594030001694 1376.2682675284723 202.65244336047726 1300.3633644378851 559.5391849298701C1224.458461347299 916.4259264992631 1218.269311612382 1006.2527876269771 1041.0495840645563 1161.9342510737933 "></path><path d="M1283.6899710607086 556.5849471618908C1209.1907143236513 906.8626749985172 1203.1161784727137 995.0260757349772 1029.1782977313294 1147.8245491179632C855.2404169899446 1300.6230225009494 797.6795799309348 1268.3611182777977 448.7881435020586 1290.0176194002224C99.89670707318237 1311.6741205226476 -541.5450128527248 1451.1994306673519 -645.5005971272743 1251.7757545056038C-749.4561814018239 1052.352078343856 -267.7477728485567 606.4016311397274 -50.1986610157785 332.7839738238322C167.3504508169999 59.16631650793681 99.36568319402613 118.88860737298637 398.7351396700635 -61.58900061069551C698.1045961461009 -242.06660859437739 1202.4091401961505 -662.2947836171319 1386.7747300692013 -533.5085444978429C1571.140319942252 -404.722305378554 1358.1892277977659 206.3072193252642 1283.6899710607086 556.5849471618908C1209.1907143236513 906.8626749985172 1203.1161784727137 995.0260757349772 1029.1782977313294 1147.8245491179632 "></path><path d="M1267.016577683531 553.6303126653956C1193.9229673000032 897.2990267692558 1187.963045333046 983.7989671144617 1017.3070113981025 1133.7144504336181C846.6509774631588 1283.6299337527744 790.1761939335645 1251.9767447036447 447.8676147957992 1273.2246325973438C105.55903565803374 1294.4725204910437 -523.7800103070072 1431.3652776141498 -625.774168463169 1235.7043123233789C-727.7683266193308 1040.043347032607 -255.14875596329512 602.5070592096884 -41.70434435377672 334.0519992016402C171.74006725574145 65.59693919359188 105.03803109735236 124.19239438194245 398.759007262521 -52.879975715254886C692.4799834276896 -229.95234581245222 1187.269347401323 -642.2516873442114 1368.1563412390333 -515.895377264909C1549.043335076744 -389.53906718560654 1340.110188067059 209.961598561536 1267.016577683531 553.6303126653956C1193.9229673000032 897.2990267692558 1187.963045333046 983.7989671144617 1017.3070113981025 1133.7144504336181 "></path><path d="M1250.3431843063536 550.6759528271041C1178.655220276355 887.7356531981973 1172.8099121933778 972.5721331521495 1005.4357250648759 1119.6046264074757C838.0615379363735 1266.637119662802 782.6728079361942 1235.592645787694 446.9470860895399 1256.4319204526687C111.22136424288533 1277.2711951176434 -506.01500776128944 1411.5313992191514 -606.0477397990635 1219.6331447993562C-706.0804718368377 1027.7348903795612 -242.54973907803333 598.6127619378524 -33.21002769177505 335.3202992376514C176.12968369448345 72.02783653745018 110.71037900067859 129.49645604910154 398.7828748549787 -44.17067616161103C686.8553707092785 -217.83780837232393 1172.1295546064962 -622.2083164130877 1349.5379524088657 -498.2819353737719C1526.9463502112353 -374.3555543344561 1322.031148336352 213.61625245601044 1250.3431843063536 550.6759528271041C1178.655220276355 887.7356531981973 1172.8099121933778 972.5721331521495 1005.4357250648759 1119.6046264074757 "></path><path d="M1233.6697909291765 547.7215929888118C1163.3874732527074 878.1722796271388 1157.6567790537101 961.3452991898369 993.564438731649 1105.4948023813333C829.4720984095879 1249.6443055728296 775.1694219388239 1219.2085468717432 446.02655738328053 1239.6392083079927C116.88369282773692 1260.0698697442426 -488.2500052155717 1391.697520824153 -586.3213111349581 1203.561977275334C-684.3926170543444 1015.4264337265151 -229.95072219277165 594.7184646660164 -24.715711029773388 336.58859927366234C180.519300133225 78.45873388130826 116.38272690400481 134.80051771626074 398.80674244743614 -35.46137660796751C681.2307579908675 -205.72327093219565 1156.9897618116693 -602.164945481964 1330.9195635786982 -480.6684934826348C1504.8493653457276 -359.17204148330563 1303.9521086056457 217.27090635048512 1233.6697909291765 547.7215929888118C1163.3874732527074 878.1722796271388 1157.6567790537101 961.3452991898369 993.564438731649 1105.4948023813333 "></path><path d="M1216.9963975519995 544.76723315052C1148.1197262290598 868.6089060560805 1142.503645914042 950.1184652275247 981.6931523984224 1091.3849783551912C820.8826588828024 1232.6514914828576 767.6660359414539 1202.8244479557927 445.1060286770212 1222.8464961633176C122.54602141258829 1242.8685443708428 -470.48500266985405 1371.8636424291544 -566.5948824708527 1187.4908097513116C-662.7047622718513 1003.1179770734693 -217.35170530750997 590.8241673941804 -16.22139436777161 337.8568993096735C184.90891657196676 84.88963122516657 122.05507480733104 140.10457938341983 398.8306100398936 -26.752077054323763C675.6061452724564 -193.60873349206736 1141.849969016842 -582.1215745508404 1312.3011747485307 -463.0550515914978C1482.752380480219 -343.9885286321551 1285.8730688749388 220.9255602449598 1216.9963975519995 544.76723315052C1148.1197262290598 868.6089060560805 1142.503645914042 950.1184652275247 981.6931523984224 1091.3849783551912 "></path><path d="M1200.323004174822 541.8127207243376C1132.8519792054117 859.0453798971314 1127.3505127743742 938.8914786773216 969.8218660651958 1077.2750017411581C812.2932193560168 1215.6585248049948 760.1626499440836 1186.4401964519518 444.18549997076184 1206.0536314307517C128.20834999743988 1225.6670664095511 -452.7200001241364 1352.0296114462649 -546.8684538067473 1171.4194896393988C-641.0169074893581 990.8093678325326 -204.7526884222483 586.9297175344539 -7.727077705769943 339.12504675779405C189.29853301070852 91.32037598113413 127.72742271065704 145.4084884626884 398.85447763235106 -18.04293008857053C669.9815325540453 -181.4943486398297 1126.7101762220148 -562.0783562076074 1293.6827859183627 -445.4417622882513C1460.6553956147109 -328.80516836889524 1267.7940291442324 224.58006155154408 1200.323004174822 541.8127207243376C1132.8519792054117 859.0453798971314 1127.3505127743742 938.8914786773216 969.8218660651958 1077.2750017411581 "></path><path d="M1183.6496107976445 538.8582388157333C1117.5842321817638 849.4818842557604 1112.1973796347063 927.6645226446967 957.9505797319687 1063.1650556447034C803.7037798292313 1198.6655886447102 752.6592639467133 1170.0559754656888 443.2649712645025 1189.2607972157634C133.87067858229148 1208.4656189658383 -434.95499757841867 1332.1956109809535 -527.1420251426418 1155.348200045064C-619.329052706865 978.5007891091743 -192.15367153698662 583.0352981923056 0.7672389562318358 340.3932247234925C193.6881494494503 97.75115125467983 133.39977061398326 150.7124280595351 398.87834522480875 -9.333752605239397C664.3569198356342 -169.3799332700139 1111.5703834271876 -542.0351073467962 1275.0643970881952 -427.8284424674267C1438.5584107492023 -313.6217775880573 1249.7149894135255 228.23459337570603 1183.6496107976445 538.8582388157333C1117.5842321817638 849.4818842557604 1112.1973796347063 927.6645226446967 957.9505797319687 1063.1650556447034 "></path><path d="M1166.9762174204675 535.9039094950194C1102.3164851581157 839.9185412022803 1097.0442464950381 916.4377191999627 946.079293398742 1049.0552621361394C795.114340302446 1181.6728050723161 745.1558779493432 1153.6719070673164 442.3444425582429 1172.4681155886663C139.53300716714296 1191.264324110016 -417.189995032701 1312.3617631035331 -507.4155964785365 1139.27706303862C-597.6411979243719 966.1923629737066 -179.55465465172483 579.1410314380478 9.261555618233615 341.6615552770818C198.07776588819206 104.18207911611614 139.07211851730938 156.01652024427244 398.9022128172662 -0.6244225340175262C658.7323071172232 -157.2653653123075 1096.4305906323605 -521.9917058980944 1256.4460082580272 -410.2149700587115C1416.4614258836941 -298.43823421932865 1231.635949682819 231.88927778775894 1166.9762174204675 535.9039094950194C1102.3164851581157 839.9185412022803 1097.0442464950381 916.4377191999627 946.079293398742 1049.0552621361394 "></path><path d="M1150.3028240432902 532.949397068837C1087.0487381344678 830.3550150433312 1081.8911133553704 905.2107326497594 934.2080070655154 1034.9452855221064C786.5249007756604 1164.679838394453 737.6524919519729 1137.2876555634753 441.4239138519838 1155.6752508561C145.19533575199443 1174.062846148725 -399.42499248698334 1292.5277321206436 -487.6891678144311 1123.2057429267068C-575.9533431418788 953.88375373277 -166.95563776646327 575.2465815783212 17.75587228023528 342.92970272520233C202.4673823269336 110.61282387208371 144.7444664206356 161.3204293235409 398.9260804097239 8.084724431735594C653.1076943988121 -145.15098046006983 1081.2907978375333 -501.94848755486134 1237.8276194278596 -392.6016807554651C1394.364441018186 -283.2548739560688 1213.5569099521126 235.54377909434288 1150.3028240432902 532.949397068837C1087.0487381344678 830.3550150433312 1081.8911133553704 905.2107326497594 934.2080070655154 1034.9452855221064 "></path><path d="M1133.6294306661127 529.9950067129671C1071.78099111082 820.7916109546945 1066.7379802157025 893.9838681698691 922.3367207322888 1020.8354309783861C777.9354612488748 1147.6869937869028 730.1491059546026 1120.9035261299466 440.5033851457242 1138.8825081938464C150.85766433684591 1156.8614902577463 -381.6599899412656 1272.693823208067 -467.96273915032566 1107.1345448851064C-554.2654883593857 941.575266562146 -154.35662088120148 571.3522537889071 26.250188942236946 344.1979722436354C206.8569987656756 117.04369069836378 150.41681432396172 166.62446047312199 398.9499480021814 16.7939934678011C647.483081680401 -133.03647353751967 1066.1510050427064 -481.90514714131587 1219.2092305976919 -374.98826938190615C1372.2674561526774 -268.07139162249644 1195.4778702214057 239.19840247123943 1133.6294306661127 529.9950067129671C1071.78099111082 820.7916109546945 1066.7379802157025 893.9838681698691 922.3367207322888 1020.8354309783861 "></path><path d="M1116.9560372889355 527.040585839519C1056.513244087172 811.22817634848 1051.5848470760343 882.7569731724004 910.4654343990619 1006.7255459170874C769.3460217220893 1130.6941186617746 722.6457199572324 1104.5193661788398 439.5828564394651 1122.0897350140147C156.5199929216975 1139.6601038491897 -363.89498739554796 1252.8598837779123 -448.23631048622025 1091.0633163259279C-532.5776335768925 929.2667488739437 -141.75760399593992 567.4578954819149 34.744505604238725 345.4662112444903C211.24661520441725 123.47452700706583 156.08916222728783 171.92846110512482 398.97381559463884 25.50323198628871C641.8584689619897 -120.92199713254763 1051.011212247879 -461.86183724534845 1200.5908417675244 -357.3748885259253C1350.1704712871697 -252.88793980650217 1177.398830490699 242.85299533055786 1116.9560372889355 527.040585839519C1056.513244087172 811.22817634848 1051.5848470760343 882.7569731724004 910.4654343990619 1006.7255459170874 "></path><path d="M1100.2826439117582 524.0861344484929C1041.2454970635242 801.6647112246872 1036.4317139363666 871.5300476573536 898.5941480658353 992.6156303382106C760.7565821953037 1113.7012130190676 715.1423339598623 1088.1351757101547 438.66232773320553 1105.2969313166045C162.182321506549 1122.4586869230545 -346.1299848498303 1233.025913830179 -428.50988182211483 1074.9920572491712C-510.8897787943994 916.9582006681633 -129.15858711067813 563.5635066573443 43.23882226624039 346.7344197277671C215.63623164315902 129.90533279818953 161.76151013061394 177.23243121954965 398.9976831870963 34.21243998719797C636.2338562435787 -108.80755124515372 1035.8714194530519 -441.81855786695917 1181.9724529373564 -339.7615381875226C1328.073486421661 -237.7045185080861 1159.3197907599922 246.50755767229816 1100.2826439117582 524.0861344484929C1041.2454970635242 801.6647112246872 1036.4317139363666 871.5300476573536 898.5941480658353 992.6156303382106 "></path><path d="M1083.609250534581 521.1317135750446C1025.9777500398764 792.1012766184726 1021.2785807966986 860.303152659885 886.7228617326084 978.5057452769122C752.1671426685184 1096.7083378939394 707.638947962492 1071.7510157590482 437.7417990269464 1088.504158136773C167.84465009140058 1105.257300514498 -328.3649823041126 1213.191974400024 -408.7834531580094 1058.9208286899927C-489.2019240119062 904.6496829799612 -116.55957022541656 559.6691483503523 51.73313892824217 348.002658728622C220.0258480819008 136.3361691068916 167.43385803394017 182.5364318515525 399.02155077955376 42.92167850568535C630.6092435251676 -96.69307484018168 1020.7316266582247 -421.77524797099176 1163.3540641071886 -322.1481573315418C1305.9765015561525 -222.52106669209184 1141.2407510292855 250.1621505316166 1083.609250534581 521.1317135750446C1025.9777500398764 792.1012766184726 1021.2785807966986 860.303152659885 886.7228617326084 978.5057452769122 "></path><path d="M1066.9357961222474 518.1772927015963C1010.7099419810722 782.5378420122579 1006.1253866218742 849.0762576624165 874.8515143642253 964.3958602156138C743.5776421065766 1079.7154627688108 700.1355009299655 1055.3668558079414 436.8212092855306 1071.7113849569414C173.5069176410958 1088.0559141059412 -310.60004079355116 1193.358034969869 -389.05708552906026 1042.8496001308142C-467.5141302645693 892.3411652917591 -103.96061437531102 555.7747900433601 60.227394555087585 349.2708977294767C224.4154034854863 142.76700541559353 173.10614490211003 187.84043248355556 399.0453573368552 51.63091702417296C624.9845697716003 -84.57859843520964 1005.5917728282413 -401.73193807502435 1144.7356142418648 -304.534776475561C1283.879455655488 -207.33761487609763 1123.1616502634226 253.81674339093502 1066.9357961222474 518.1772927015963C1010.7099419810722 782.5378420122579 1006.1253866218742 849.0762576624165 874.8515143642253 964.3958602156138 "></path><path d="M1050.2624027450702 515.2228413105704C995.4421949574244 772.9743768884653 990.9722534822063 837.8493321473698 862.9802280309987 950.285944636737C734.988202579791 1062.7225571261042 692.6321149325952 1038.9826653392568 435.90068057927147 1054.9185812595315C179.1692462259473 1070.8544971798065 -292.8350382478335 1173.5240650221363 -369.33065686495485 1026.7783410540576C-445.8262754820762 880.0326170859787 -91.36159749004946 551.8804012187898 68.72171121708925 350.5391062127535C228.80501992422796 149.19781120671746 178.77849280543626 193.14440259798027 399.06922492931267 60.34012502508233C619.3599570531892 -72.46415254781573 990.4519800334144 -381.68865869663506 1126.117225411697 -286.9214261371583C1261.78247078998 -192.1541935776815 1105.082610532716 257.4713057326753 1050.2624027450702 515.2228413105704C995.4421949574244 772.9743768884653 990.9722534822063 837.8493321473698 862.9802280309987 950.285944636737 "></path><path d="M1033.5890704030492 512.2684509547003C980.1745089689327 763.4109727998286 975.8191813776946 826.6224676674792 851.1090027329283 936.1760900930167C726.3988240881617 1045.729712518554 685.1287899703814 1022.5985359057281 434.98021290816814 1038.125838597278C184.83163584595502 1053.6531412888278 -275.0699746669595 1153.6901561095594 -349.6041671656932 1010.7071430124572C-424.1383596644268 867.7241299153548 -78.76251956963142 547.9860734293757 77.2160889142474 351.80737573118665C233.19469739812598 155.6286780329974 184.45090174391862 198.44843374756124 399.0931535569266 69.04939406114795C613.7354053699344 -60.349645625265566 975.3122482737435 -361.6453182830895 1107.4988976166858 -269.3080147635993C1239.6855469596278 -176.9707112441091 1087.0036318371656 261.12592910957187 1033.5890704030492 512.2684509547003C980.1745089689327 763.4109727998286 975.8191813776946 826.6224676674792 851.1090027329283 936.1760900930167 "></path><path d="M1016.9156770258719 509.31399956367386C964.9067619452846 753.847507676036 960.6660482380269 815.3955421524324 839.2377163997014 922.0661745141397C717.8093845613764 1028.7368068758472 677.6254039730111 1006.214345437043 434.0596842019088 1021.3330348998679C190.4939644308065 1036.4517243626926 -257.30497212124186 1133.8561861618261 -329.87773850158777 994.6358839357001C-402.4505048819336 855.4155817095743 -66.16350268436986 544.0916846048053 85.71040557624895 353.0755842144632C237.58431383686775 162.05948382412134 190.12324964724485 203.75240386198607 399.1170211493841 77.75860206205721C608.1107926515233 -48.23519973787165 960.1724554789164 -341.60203890470024 1088.8805087865178 -251.69466442519666C1217.5885620941194 -161.78728994569303 1068.924592106459 264.78049145131206 1016.9156770258719 509.31399956367386C964.9067619452846 753.847507676036 960.6660482380269 815.3955421524324 839.2377163997014 922.0661745141397 "></path><path d="M1000.2422226135384 506.35957869022604C949.6389538864805 744.2840730698213 945.5128540632024 804.1686471549638 827.3663690313185 907.9562894528412C709.2198839994346 1011.7439317507187 670.1219569404846 989.8301854859365 433.1390944604932 1004.5402617200364C196.15623198050184 1019.2503379541363 -239.5400306106804 1114.0222467316712 -310.1513708726386 978.5646553765216C-380.76271113459677 843.107064021372 -53.56454683426432 540.1973262978131 94.20466120309447 354.34382321531814C241.97386924045327 168.49032013282317 195.7955365154146 209.05640449398902 399.1408277066853 86.4678405805447C602.4861188979557 -36.120723332899615 945.032601648933 -321.5587290087328 1070.262058921194 -234.08128356921583C1195.4915161934548 -146.60383812969877 1050.845491340596 268.4350843106306 1000.2422226135384 506.35957869022604C949.6389538864805 744.2840730698213 945.5128540632024 804.1686471549638 827.3663690313185 907.9562894528412 "></path><path d="M983.5688597539393 503.4050967816215C934.3712373804108 734.7205774284503 930.3597514411126 792.9416911223391 815.4951132156698 893.8463433563866C700.630474990227 994.7509955904341 662.6186014606924 973.4459644996734 432.218596271812 987.7474275050483C201.81859108293156 1002.0488905104232 -221.7749975473846 1094.1882462663602 -290.42491169095507 962.4933657821869C-359.0748258345255 830.7984852980137 -40.96549943142452 536.3029069556646 102.69900838267426 355.6120011810168C246.36351619677316 174.92109540636898 201.46791493631895 214.36034409083572 399.1647258167209 95.17701806387595C596.8615366971228 -24.006307963083827 929.892839371684 -301.5154801479217 1051.6437006086044 -216.46796374839124C1173.3945618455248 -131.42044734886082 1032.7664821274675 272.0896161347928 983.5688597539393 503.4050967816215C934.3712373804108 734.7205774284503 930.3597514411126 792.9416911223391 815.4951132156698 893.8463433563866 "></path><path d="M966.8954358591839 500.4506453905951C919.1034598391848 725.1571123046574 915.2065877838666 781.7147656072921 803.623796364865 879.7364277775098C692.0410049458637 977.7580899477273 655.1151849457442 957.0617740309885 431.2980370479745 970.9546238076384C207.4808891502048 984.8474735842881 -204.010025519245 1074.354276318627 -270.6985135444278 946.4221067054302C-337.3870015696105 818.4899370922335 -28.366513063740967 532.4085181310943 111.1932945270978 356.8802096642935C250.7531021179368 181.3519011974928 207.14023232206705 219.66431420526033 399.1885628916002 103.8862260647852C591.2368934611336 -11.891862075689914 914.7530160592787 -281.4722007695324 1033.0252812608585 -198.85461340998853C1151.2975464624383 -116.23702605044468 1014.6874118791827 275.7441784765331 966.8954358591839 500.4506453905951C919.1034598391848 725.1571123046574 915.2065877838666 781.7147656072921 803.623796364865 879.7364277775098 "></path><path d="M950.2220424820066 497.49619399956896C903.8357128155369 715.5936471808645 900.0534546441986 770.4878400922455 791.7525100316384 865.6265121986332C683.4515654190782 960.7651843050207 647.6117989483737 940.6775835623037 430.37750834171493 954.1618201102285C213.1432177350564 967.6460566581534 -186.24502297352734 1054.5203063708939 -250.97208488032237 930.3508476286736C-315.69914678711734 806.1813888864531 -15.767496178479291 528.514129306524 119.68761118909958 358.1484181475703C255.14271855667857 187.7827069886166 212.81258022539316 224.96828431968515 399.2124304840578 112.59543406569458C585.6122807427225 0.22258381170399844 899.6132232644516 -261.42892139114315 1014.4068924306907 -181.24126307158588C1129.20056159693 -101.0536047520286 996.6083721484761 279.39874081827327 950.2220424820066 497.49619399956896C903.8357128155369 715.5936471808645 900.0534546441986 770.4878400922455 791.7525100316384 865.6265121986332 "></path><path d="M933.5486491048291 494.54180364369904C888.567965791889 706.0302430922284 884.9003215045307 759.2609756123552 779.8812236984118 851.5166576549129C674.8621258922926 943.7723396974704 640.1084129510036 924.293454128775 429.4569796354557 937.3690774479749C218.80554631990788 950.4447007671749 -168.48002042780968 1034.686397458317 -231.24565621621696 914.2796495870732C-294.01129200462424 793.8729017158289 -3.168479293217615 524.6198015171099 128.18192785110136 359.4166876660033C259.53233499542034 194.21357381489668 218.48492812871928 230.27231546926623 399.23629807651537 121.3047031017602C579.9876680243115 12.337090734254161 884.4734304696244 -241.3855809775976 995.788503600523 -163.62785169802692C1107.1035767314218 -85.87012241845622 978.5293324177694 283.05336419516993 933.5486491048291 494.54180364369904C888.567965791889 706.0302430922284 884.9003215045307 759.2609756123552 779.8812236984118 851.5166576549129 "></path><path d="M916.8752557276518 491.587382770251C873.3002187682412 696.4668084860136 869.7471883648627 748.0340806148865 768.0099373651849 837.4067725936143C666.2726863655071 926.7794645723422 632.6050269536336 907.9092941776682 428.53645092919635 920.5763042681433C224.46787490475936 933.2433143586181 -150.71501788209196 1014.8524580281623 -211.51922755211154 898.2084210278947C-272.3234372221311 781.564384027627 9.430537592044061 520.7254432101176 136.67624451310303 360.68492666685825C263.921951434162 200.64441012359862 224.1572760320455 235.57631610126919 399.26016566897295 130.0139416202477C574.3630553059004 24.4515671392262 869.3336376747973 -221.3422710816302 977.1701147703554 -146.01447084204608C1085.0065918659136 -70.68667060246196 960.4502926870628 286.70795705448836 916.8752557276518 491.587382770251C873.3002187682412 696.4668084860136 869.7471883648627 748.0340806148865 768.0099373651849 837.4067725936143 "></path><path d="M900.2018623504746 488.63296189680295C858.0324717445933 686.9033738797989 854.5940552251948 736.8071856174179 756.138651031958 823.2968875323158C657.6832468387215 909.7865894472138 625.101640956263 891.5251342265617 427.615922222937 903.7835310883115C230.13020348961095 916.0419279500616 -132.9500153363743 995.0185185980076 -191.79279888800613 882.1371924687162C-250.63558243963791 769.2558663394248 22.029554477305737 516.8310849031255 145.1705611751047 361.95316566771317C268.31156787290377 207.07524643230067 229.82962393537161 240.88031673327214 399.2840332614304 138.7231801387352C568.7384425874893 36.56604354419824 854.1938448799701 -201.2989611856628 958.5517259401877 -128.40108998606524C1062.9096070004052 -55.503218786467755 942.3712529563561 290.3625499138068 900.2018623504746 488.63296189680295C858.0324717445933 686.9033738797989 854.5940552251948 736.8071856174179 756.138651031958 823.2968875323158 "></path><path d="M883.5284689732973 485.6784189530422C842.7647247209452 677.3398172032717 839.4409220855268 725.5801685496367 744.2673646987314 809.1868804007045C649.093807311936 892.7935922517727 617.598254958893 875.1408522051424 426.69539351667765 886.9906358381672C235.79253207446231 898.840419471192 -115.18501279065663 975.18445709754 -172.06637022390072 866.065841839225C-228.9477276571448 756.94722658091 34.62857136256741 512.9366045258208 153.66487783710647 363.22128259825536C272.7011843116454 213.50596067069 235.50197183869773 246.18419529496248 399.3079008538879 147.43229658691007C563.1138298690782 48.680397878857775 839.054052085143 -181.25577336000788 939.9333371100199 -110.78783120039697C1040.8126221348969 -40.319889040785995 924.2922132256494 294.0170207028126 883.5284689732973 485.6784189530422C842.7647247209452 677.3398172032717 839.4409220855268 725.5801685496367 744.2673646987314 809.1868804007045 "></path><path d="M866.8550755961201 482.7240591147504C827.4969776972976 667.7764436322134 824.2877889458589 714.3533345873243 732.3960783655048 795.0770563745623C640.5043677851504 875.8007781618003 610.0948689615227 858.7567532891917 425.7748648104183 870.1979236934917C241.4548606593139 881.6390940977917 -97.42001024493891 955.3505787025413 -152.3399415597953 849.9946743152027C-207.25987287465165 744.6387699278641 47.22758824782909 509.04230725398486 162.15919449910825 364.4895826342665C277.0908007503872 219.9368580145483 241.17431974202395 251.48825696212157 399.33176844634545 156.14159614055393C557.4892171506672 60.79493531898606 823.9142592903158 -161.21240242888422 921.3149482798522 -93.17438930925988C1018.7156372693885 -25.136376189635484 906.2131734949428 297.6716745972874 866.8550755961201 482.7240591147504C827.4969776972976 667.7764436322134 824.2877889458589 714.3533345873243 732.3960783655048 795.0770563745623 "></path><path d="M850.1816822189426 479.7696077237241C812.2292306736495 658.2129785084207 809.134655806191 703.1264090722775 720.5247920322781 780.9671407956857C631.9149282583649 858.807872519094 602.5914829641524 842.372562820507 424.85433610415896 853.4051199960818C247.1171892441655 864.437677171657 -79.65500769922124 935.5166087548082 -132.6135128956899 833.9234152384461C-185.5720180921585 732.3302217220839 59.82660513309088 505.1479184294145 170.65351116110992 365.7577911175433C281.48041718912896 226.36766380567212 246.84666764535007 256.7922270765464 399.355636038803 164.8508041414632C551.8646044322559 72.90938120637998 808.7744664954887 -141.16912305049493 902.6965594496846 -75.56103897085717C996.6186524038803 -9.952954891219406 888.1341337642361 301.3262369390277 850.1816822189426 479.7696077237241C812.2292306736495 658.2129785084207 809.134655806191 703.1264090722775 720.5247920322781 780.9671407956857 "></path><path d="M833.5082888417655 476.8152173678541C796.9614836500016 648.6495744197841 793.981522666523 691.899544592387 708.6535056990513 766.8572862519654C623.3254887315793 841.8150279115434 595.0880969667824 825.9884333869786 423.9338073978996 836.6123773338281C252.77951782901687 847.2363212806781 -61.89000515350358 915.6826998422312 -112.88708423158448 817.8522171968457C-163.88416330966538 720.0217345514598 72.42562201835244 501.2535906400004 179.14782782311158 367.02606063597636C285.8700336278707 232.7985306319522 252.51901554867618 262.0962582261275 399.3795036312605 173.5600731775288C546.2399917138448 85.02388812893014 793.6346737006616 -121.1257826369494 884.0781706195166 -57.94762759729821C974.521667538372 5.2305274423529795 870.0550940335295 304.98086031592425 833.5082888417655 476.8152173678541C796.9614836500016 648.6495744197841 793.981522666523 691.899544592387 708.6535056990513 766.8572862519654 "></path><path d="M816.8348954645883 473.8607964944059C781.6937366263537 639.0861398135694 778.8283895268551 680.6726495949183 696.7822193658244 752.7474011906666C614.736049204794 824.8221527864148 587.5847109694118 809.6042734358716 423.01327869164027 819.8196041539964C258.44184641386846 830.0349348721213 -44.12500260778586 895.8487604120764 -93.16065556747907 801.780988637667C-142.19630852717222 707.7132168632575 85.02463890361423 497.3592323330082 187.64214448511325 368.29429963683117C290.2596500666125 239.22936694065413 258.1913634520024 267.4002588581304 399.40337122371807 182.2693116960163C540.6153789954337 97.13836453390218 778.4948809058346 -101.08247274098198 865.4597817893491 -40.33424674131743C952.4246826728638 20.413979258347183 851.9760543028228 308.63545317524256 816.8348954645883 473.8607964944059C781.6937366263537 639.0861398135694 778.8283895268551 680.6726495949183 696.7822193658244 752.7474011906666 "></path><path d="M800.161502087411 470.90634510337975C766.4259896027058 629.5226746897766 763.6752563871871 669.4457240798718 684.9109330325978 738.63748561179C606.1466096780084 807.8292471437085 580.0813249720418 793.220082967187 422.0927499853809 803.0268004565869C264.10417499871994 812.8335179459864 -26.360000062068195 876.0147904643434 -73.43422690337366 785.7097295609103C-120.50845374467912 695.4046686574773 97.6236557888758 493.46484350843787 196.13646114711503 369.56250812010796C294.64926650535426 245.66017273177795 263.8637113553285 272.70422897255514 399.42723881617553 190.97851969692567C534.9907662770227 109.25281042129609 763.3550881110073 -81.03919336259275 846.8413929591813 -22.72089640291472C930.3276978073554 35.59740055676332 833.8970145721162 312.290015516983 800.161502087411 470.90634510337975C766.4259896027058 629.5226746897766 763.6752563871871 669.4457240798718 684.9109330325978 738.63748561179 "></path><path d="M783.4881087102337 467.95189371235347C751.158242579058 619.9592095659839 748.5221232475192 658.2187985648251 673.0396466993711 724.5275700329134C597.557170151223 790.8363415010017 572.5779389746716 776.8358924985018 421.17222127912146 786.233996759177C269.7665035835714 795.6321010198517 -8.594997516350531 856.1808205166103 -53.70779823926824 769.6384704841539C-98.82059896218595 683.0961204516971 110.22267267413758 489.57045468386764 204.6307778091168 370.83071660338464C299.03888294409603 252.09097852290188 269.53605925865463 278.00819908697997 399.4511064086331 199.68772769783504C529.3661535586116 121.36725630869 748.2152953161803 -60.99591398420347 828.2230041290136 -5.107546064512007C908.2307129418471 50.7808218551794 815.8179748414095 315.9445778587233 783.4881087102337 467.95189371235347C751.158242579058 619.9592095659839 748.5221232475192 658.2187985648251 673.0396466993711 724.5275700329134 "></path><path d="M766.8147458506346 464.99750335648355C735.890526072988 610.3958054773473 733.3690206254294 646.9919340849345 661.1683908837226 710.4177154891931C588.9677611420155 773.8434968934514 565.0745834948794 760.4517630649734 420.25172309044024 769.4412540969233C275.42886268600114 778.4307451288732 9.170035546945314 836.3469116040335 -33.981339057584705 753.5672724425531C-77.13271366211467 670.787633281073 122.82172007697739 485.67612689445355 213.1251249886966 372.0989861218177C303.4285299004159 258.52184534918183 275.208437679559 283.31223023656094 399.4750045186688 208.39699673390055C523.7415713577786 133.48176323124017 733.0755330389313 -40.95257357065793 809.6046458164242 12.505865309046953C886.1337585939168 65.96430418875178 797.738965628281 319.5992012356197 766.8147458506346 464.99750335648355C735.890526072988 610.3958054773473 733.3690206254294 646.9919340849345 661.1683908837226 710.4177154891931 "></path><path d="M750.141321955879 462.0430824830355C720.6227485317622 600.8323708711326 718.2158569681833 635.7650390874659 649.2970740329176 696.3078304278943C580.3782910976519 756.850621768323 557.5711669799311 744.0676031138664 419.33116386660276 752.6484809170913C281.0911607532745 761.2293587203162 26.935007575084853 816.5129721738786 -14.254940911057417 737.4960438833746C-55.44488939719969 658.4791155928707 135.42070644466094 481.7817685874612 221.61941113312014 373.3672251226726C307.81811582157957 264.9526816578839 280.88075506530697 288.6162308685639 399.49884159354815 217.10623525238805C518.1169281217893 145.5962396362122 717.935709726526 -20.90926367469052 790.9862264686781 30.119246165027732C864.0367432108305 81.14775600474604 779.6598953799962 323.25379409493814 750.141321955879 462.0430824830355C720.6227485317622 600.8323708711326 718.2158569681833 635.7650390874659 649.2970740329176 696.3078304278943 "></path><path d="M733.467928578702 459.088600574431C705.3550015081141 591.2688752297618 703.0627238285151 624.5380830548411 637.4257876996908 682.1978843314397C571.7888515708664 739.8576856080381 550.0677809825609 727.6833821276036 418.4106351603434 735.8556467021035C286.753489338126 744.0279112766034 44.700010120802574 796.6789717085674 5.471487753047995 721.4247542890398C-33.75703461470653 646.1705368695124 148.0197233299226 477.88734924531286 230.11372779512192 374.63540308837116C312.20773226032134 271.3834569314296 286.5531029686331 293.9201704654106 399.5227091860057 225.8154127357193C512.4923154033783 157.710655006028 702.7959169316987 -0.8660148138793602 772.3678376385105 47.73256598585232C841.9397583453222 96.331146785584 761.5808556492893 326.9083259191003 733.467928578702 459.088600574431C705.3550015081141 591.2688752297618 703.0627238285151 624.5380830548411 637.4257876996908 682.1978843314397 "></path><path d="M716.7945352015245 456.13417970098294C690.0872544844664 581.7054406235471 687.9095906888473 613.3111880573724 625.5545013664641 668.0879992701412C563.1994120440809 722.8648104829098 542.5643949851907 711.2992221764969 417.49010645408407 719.0628735222718C292.41581792297757 726.8265248680467 62.46501266652024 776.8450322784124 25.197916417153408 705.3535257298614C-12.069179832213422 633.8620191813102 160.6187402151843 473.99299093832065 238.6080444571237 375.9036420892262C316.597348699063 277.8142932401315 292.2254508719593 299.22417109741343 399.5465767784633 234.5246512542068C506.8677026849672 169.82513141100003 687.6561241368718 19.17729508208805 753.749448808343 65.34594684183315C819.8427734798138 111.51459860157826 743.5018159185829 330.56291877841875 716.7945352015245 456.13417970098294C690.0872544844664 581.7054406235471 687.9095906888473 613.3111880573724 625.5545013664641 668.0879992701412 "></path><path d="M700.1211418243473 453.1797588275349C674.8195074608184 572.1420060173325 672.7564575491793 602.0842930599038 613.6832150332374 653.9781142088425C554.6099725172954 705.8719353577812 535.0610089878204 694.9150622253901 416.5695777478247 702.2701003424401C298.07814650782905 709.62513845949 80.2300152122379 757.0110928482575 44.92434508125882 689.2822971706827C9.61867495027974 621.5535014931079 173.21775710044597 470.0986326313284 247.10236111912536 377.1718810900809C320.98696513780476 284.24512954883346 297.8977987752854 304.5281717294164 399.57044437092077 243.23388977269428C501.243089966556 181.93960781597207 672.5163313420446 39.22060497805546 735.131059978175 82.95932769781399C797.7457886143056 126.69805041757246 725.422776187876 334.2175116377372 700.1211418243473 453.1797588275349C674.8195074608184 572.1420060173325 672.7564575491793 602.0842930599038 613.6832150332374 653.9781142088425 "></path><path d="M683.44774844717 450.2253074365085C659.5517604371705 562.5785408935396 657.6033244095114 590.857367544857 601.8119287000106 639.8681986299658C546.02053299051 688.8790297150746 527.5576229904502 678.5308717567052 415.6490490415654 685.4772966450302C303.7404750926805 692.423721533355 97.99501775795562 737.1771229005244 64.65077374536423 673.211038093926C31.3065297327729 609.2449532873277 185.81677398570764 466.2042438067581 255.59667778112703 378.4400895733577C325.3765815765465 290.6759353399573 303.57014667861165 309.8321418438411 399.59431196337823 251.94309777360354C495.6184772481449 194.05405370336598 657.3765385472175 59.26388435644475 716.5126711480074 100.57267803621664C775.6488037487973 141.8814717159886 707.3437364571695 337.8720739794775 683.44774844717 450.2253074365085C659.5517604371705 562.5785408935396 657.6033244095114 590.857367544857 601.8119287000106 639.8681986299658 "></path><path d="M666.7743245524146 447.27088656306046C644.2839828959445 553.0151062873251 642.4501607522653 579.6304725473885 589.9406118492059 625.7583135686674C537.4310629461463 671.8861545899462 520.0542064755018 662.1467118055984 414.7284898177279 668.6845234651984C309.402773159954 675.2223351247984 115.75998978609516 717.3431834703695 84.37717189189152 657.1398095347475C52.99435399768788 596.9364355991254 198.4157603533912 462.30988549976587 264.0909639255507 379.7083285742126C329.76616749771017 297.10677164865933 309.24246406435964 315.13614247584405 399.6181490382577 260.65233629209104C489.99383401215573 206.16853010833802 642.2367152348122 79.30719425241216 697.8942518002615 118.18605889219748C753.5517883657109 157.06492353198286 689.2646662088847 341.5266668387959 666.7743245524146 447.27088656306046C644.2839828959445 553.0151062873251 642.4501607522653 579.6304725473885 589.9406118492059 625.7583135686674 "></path><path d="M650.1009311752373 444.31652672476866C629.0162358722966 543.4517327162666 627.2970276125974 568.4036385850761 578.069325515979 611.6484895425251C528.8416234193608 654.8933404999741 512.5508204781315 645.762612889648 413.80796111146856 651.891811320523C315.0651017448055 658.021009751398 133.52499233181283 697.509305075371 104.10360055599693 641.0686420107253C74.68220878018104 584.6279789460796 211.01477723865287 458.4155882279299 272.58528058755235 380.97662861022377C334.1557839364518 303.5376689925175 314.91481196768586 320.44020414300326 399.64201663071526 269.3616358457348C484.36922129374466 218.2830675484663 627.0969224399851 99.35056518353576 679.2758629700938 135.79950078333457C731.4548035002026 172.2484363831333 671.185626478178 345.1813207332706 650.1009311752373 444.31652672476866C629.0162358722966 543.4517327162666 627.2970276125974 568.4036385850761 578.069325515979 611.6484895425251 "></path><path d="M633.42753779806 441.3620753337424C613.7484888486488 533.8882675924739 612.1438944729294 557.1767130700293 566.1980391827524 597.5385739636483C520.2521838925752 637.9004348572673 505.04743448076135 629.378422420963 412.8874324052092 635.099007623113C320.72743032965695 640.819592825263 151.28999487753055 677.6753351276378 123.83002922010235 624.9973829339685C96.3700635626742 572.3194307402993 223.61379412391454 454.52119940335956 281.0795972495541 382.24483709350045C338.5454003751936 309.96847478364134 320.587159871012 325.74417425742797 399.6658842231727 278.07084384664415C478.7446085753336 230.39751343586022 611.9571296451579 119.39384456192505 660.6574741399261 153.41285112173728C709.3578186346942 187.43185768154945 653.1065867474714 348.8358830750109 633.42753779806 441.3620753337424C613.7484888486488 533.8882675924739 612.1438944729294 557.1767130700293 566.1980391827524 597.5385739636483 "></path><path d="M616.7541444208828 438.4076239427161C598.4807418250008 524.3248024686811 596.9907613332615 545.9497875549825 554.3267528495256 583.4286583847718C511.66274436578965 620.9075292145608 497.5440484833912 612.9942319522784 411.96690369894986 618.3062039257031C326.38975891450843 623.6181758991281 169.0549974232482 657.8413651799046 143.55645788420776 608.9261238572119C118.05791834516731 560.0108825345189 236.21281100917622 450.6268105787892 289.5739139115558 383.51304557677724C342.93501681393536 316.39928057476516 326.2595077743381 331.0481443718528 399.6897518156302 286.78005184755347C473.1199958569224 242.51195932325413 596.8173368503308 139.43712394031434 642.0390853097583 171.02620146013993C687.260833769186 202.61527897996552 635.0275470167647 352.4904454167512 616.7541444208828 438.4076239427161C598.4807418250008 524.3248024686811 596.9907613332615 545.9497875549825 554.3267528495256 583.4286583847718 "></path><path d="M600.0807510437055 435.45317255168993C583.2129948013529 514.7613373448883 581.8376281935936 534.7228620399359 542.4554665162989 569.318742805895C503.0733048390042 603.9146235718542 490.0406624860209 596.6100414835935 411.0463749926905 601.5134002282934C332.0520874993599 606.4167589729932 186.81999996896593 638.0073952321717 163.28288654831317 592.8548647804552C139.74577312766047 547.7023343287386 248.8118278944379 446.7324217542189 298.0682305735575 384.7812540600539C347.32463325267713 322.830086365889 331.9318556776643 336.35211448627757 399.71361940808777 295.48925984846284C467.49538313851133 254.62640521064804 581.6775440555036 159.48040331870362 623.4206964795907 188.63955179854264C665.1638489036777 217.79870027838166 616.9485072860581 356.1450077584915 600.0807510437055 435.45317255168993C583.2129948013529 514.7613373448883 581.8376281935936 534.7228620399359 542.4554665162989 569.318742805895 "></path><path d="M583.4073576665282 432.49876693703084C567.9452477777049 505.1979179974627 566.6844950539256 523.4959823012564 530.5841801830722 555.2088730033856C494.48386531221877 586.9217637055148 482.5372764886506 580.2258967912758 410.12584628643106 584.7206423072507C337.7144160842115 589.2153878232257 204.5850025146836 618.1734710608058 183.00931521241858 576.7836514800656C161.43362791015358 535.3938318993255 261.41084477969963 442.83807870601584 306.56254723555924 386.0495083196979C351.7142496914189 329.26093793338 337.60420358099043 341.65613037706953 399.73748700054534 304.19851362573934C461.87077042010026 266.74089687440915 566.5377512606766 179.5237284734601 604.802307649423 206.25294791331254C643.0668640381693 232.98216735316493 598.8694675553514 359.7996158765989 583.4073576665282 432.49876693703084C567.9452477777049 505.1979179974627 566.6844950539256 523.4959823012564 530.5841801830722 555.2088730033856 "></path><path d="M566.733964289351 429.5443460635827C552.6775007540571 495.63448339124807 551.5313619142576 512.2690873037877 518.7128938498454 541.098987942087C485.8944257854332 569.9288885803862 475.03389049128043 563.841736840169 409.2053175801717 567.927869127419C343.376744669063 572.0140014146689 222.35000506040126 598.3395316306509 202.735743876524 560.7124229208871C183.12148269264674 523.0853142111234 274.0098616649613 438.9437203990236 315.05686389756096 387.3177473205528C356.10386613016067 335.691774242082 343.27655148431654 346.9601310090725 399.7613545930028 312.90775214422683C456.24615770168907 278.8553732793812 551.3979584658493 199.5670383694275 586.1839188192553 223.86632876929337C620.9698791726611 248.16561916915919 580.7904278246447 363.45420873591735 566.733964289351 429.5443460635827C552.6775007540571 495.63448339124807 551.5313619142576 512.2690873037877 518.7128938498454 541.098987942087 "></path><path d="M550.0605709121737 426.58987941376745C537.4097537304092 486.07100300866625 536.3782287745896 501.0421465299519 506.84160751661875 526.9890571044212C477.30498625864766 552.9359676788906 467.53050449391026 547.457531112695 408.28478887391236 551.13505017122C349.0390732539145 554.812569229745 240.11500760611898 578.5055464241287 222.4621725406294 544.6411485853414C204.8093374751399 510.77675074655394 286.608878550223 435.0493163156642 323.5511805595627 388.58594054504044C360.4934825689024 342.12256477441673 348.9488993876427 352.2640858647082 399.7852221854604 321.61694488634714C450.621544983278 290.96980390798603 536.2581656710223 219.61030248902773 567.5655299890875 241.47966384890697C598.8728943071528 263.34902520878626 562.711388093938 367.1087558188686 550.0605709121737 426.58987941376745C537.4097537304092 486.07100300866625 536.3782287745896 501.0421465299519 506.84160751661875 526.9890571044212 "></path><path d="M533.3871775349963 423.6354585403193C522.1420067067613 476.5075684024516 521.2250956349217 489.81525153248333 494.970321183392 512.8791720431227C468.7155467318622 535.9430925537622 460.02711849653997 531.0733711615883 407.364260167653 534.3422769913882C354.70140183876606 537.6111828211883 257.88001015183664 558.6716069939738 242.18860120473482 528.5699200261629C226.497192257633 498.46823305835176 299.20789543548466 431.154958008672 332.0454972215644 389.85417954589536C364.88309900764415 348.55340108311873 354.6212472909689 357.5680864967111 399.8090897779179 330.3261834048346C444.9969322648669 303.0842803129581 521.1183728761952 239.65361238499514 548.9471411589197 259.0930447048878C576.7759094416444 278.53247702478046 544.6323483632314 370.763348678187 533.3871775349963 423.6354585403193C522.1420067067613 476.5075684024516 521.2250956349217 489.81525153248333 494.970321183392 512.8791720431227 "></path><path d="M516.713753640241 420.6810376668712C506.8742291655353 466.9441337962369 506.0719319776756 478.58835653501467 483.0990043325871 498.76928698182417C460.12607668749854 518.9502174286337 452.52370198159156 514.6892112104815 406.44370094381554 517.5495038115565C360.3636999060394 520.4097964126315 275.6449821799762 538.837667563819 261.9149993512621 512.4986914669843C248.18501652254804 486.15971537014957 311.8068818031682 427.2605997016798 340.539783365988 391.1224185467502C369.27268492880773 354.98423739182067 360.2935646767169 362.872087128714 399.8329268527973 339.0354219233221C439.37228902887773 315.1987567179301 505.9785495637899 259.69692228096255 530.328721811174 276.70642556086864C554.6788940585581 293.7159288407747 526.5532781149466 374.41794153750544 516.713753640241 420.6810376668712C506.8742291655353 466.9441337962369 506.0719319776756 478.58835653501467 483.0990043325871 498.76928698182417 "></path><path d="M500.0403602630637 417.72658627584497C491.60648214188745 457.38066867244413 490.91879883800766 467.361431019968 471.2277179993604 484.6593714029475C451.5366371607131 501.9573117859271 445.0203159842214 498.30502074179674 405.5231722375562 500.7567001141467C366.0260284908909 503.2083794864966 293.4099847256939 519.0036976160859 281.6414280153675 496.4274323902275C269.87287130504114 473.8511671643694 324.4058986884299 423.36621087710944 349.03410002798967 392.39062703002696C373.6623013675495 361.4150431829445 365.9659125800431 368.17605724313876 399.8567944452548 347.7446299242314C433.7476763104666 327.313202605324 490.83875676896275 279.74020165935184 511.71033298100633 294.31977589927135C532.5819091930498 308.8993501391908 508.4742383842399 378.07250387924574 500.0403602630637 417.72658627584497C491.60648214188745 457.38066867244413 490.91879883800766 467.361431019968 471.2277179993604 484.6593714029475 "></path><path d="M483.36699740346455 414.7721654023968C476.3387656358176 447.8172340662295 475.76569621591784 456.13453602249933 459.35646218371176 470.54948634164896C442.94722815150567 484.9644366607986 437.5169605044293 481.92086079068997 404.6026740488749 483.96392693431494C371.68838759332056 486.0069930779399 311.1750177889897 499.16975818593096 301.36788719705106 480.356203831049C291.56075660511243 461.5426494761672 337.0049460912697 419.4718525701173 357.52844720756957 393.6588660308819C378.0519483238694 367.84587949164643 371.63829100094733 373.4800578751417 399.88069255529047 356.4538684427189C428.1230941096336 339.42767901029606 475.69899449171373 299.78351155531925 493.0919746684167 311.9331567552521C510.48495484511955 324.08280195518506 490.3952291711114 381.7270967385641 483.36699740346455 414.7721654023968C476.3387656358176 447.8172340662295 475.76569621591784 456.13453602249933 459.35646218371176 470.54948634164896 "></path><path d="M466.69358876749817 411.81772927015965C461.07100335338066 438.2537842012258 460.61254781746084 444.90762576624167 447.485160591696 456.43958602156135C434.3577733659311 467.9715462768811 430.01355924827 465.53668558079414 403.6821300838265 467.1711384956941C377.35070091938303 468.80559141059416 328.9400050759183 479.3358034969869 321.0943006023674 464.28496001308145C313.24859612881653 449.2341165291759 349.60394771774236 415.577479004336 366.0227486107822 394.9270897729477C382.44154950382205 374.27670054155936 377.31062364548444 378.78404324835554 399.904544888959 365.1630917024173C422.49846613243346 351.54214015647904 460.5591864380976 319.82680619249754 474.4735705794599 329.5465223524439C488.3879547208222 339.26623851239026 472.3161741816157 385.3816743390935 466.69358876749817 411.81772927015965C461.07100335338066 438.2537842012258 460.61254781746084 444.90762576624167 447.485160591696 456.43958602156135 "></path><path d="M450.02018013153184 408.8632931379225C445.8032410709437 428.69033433622207 445.45939941900383 433.680715509984 435.6138589996802 442.32968570147375C425.76831858035655 450.97865589296356 422.5101579921107 449.15251037089837 402.7615861187781 450.37835005707336C383.01301424544545 451.6041897432483 346.70499236284695 459.50184880804295 340.82071400768376 448.21371619511376C334.9364356525206 436.9255835821847 362.20294934421497 411.6831054385547 374.51705001399483 396.1953135150135C386.83115068377475 380.70752159147224 382.98295629002155 384.0880286215694 399.9283972226274 373.8723149621157C416.87383815523333 363.656601302662 445.4193783844814 339.8701008296759 455.85516649050317 347.1598879496357C466.2909545965249 354.4496750695954 454.23711919211996 389.03625193962284 450.02018013153184 408.8632931379225C445.8032410709437 428.69033433622207 445.45939941900383 433.680715509984 435.6138589996802 442.32968570147375 "></path><path d="M433.3467867543545 405.9088722644743C430.5354940472958 419.12689973000744 430.3062662793359 422.45382051251534 423.74257266645344 428.2198006401752C417.178879053571 433.9857807678351 415.00677199474046 432.7683504197916 401.8410574125187 433.5855768772416C388.675342830297 434.4028033346916 364.4699949085646 439.667909377888 360.5471426717892 432.14248763593525C356.62429043501373 424.6170658939825 374.80196622947665 407.78874713156256 383.01136667599656 397.4635525158684C391.2207671225165 387.1383579001742 388.6553041933477 389.39202925357233 399.95226481508496 382.5815534806032C411.2492254368222 375.77107770763405 430.2795855896543 359.9134107256433 437.2367776603354 364.7732688056165C444.1939697310166 369.63312688558966 436.1580794614133 392.69084479894127 433.3467867543545 405.9088722644743C430.5354940472958 419.12689973000744 430.3062662793359 422.45382051251534 423.74257266645344 428.2198006401752 "></path><path d="M416.67339337717726 402.9544208734481C415.26774702364787 409.5634346062146 415.15313313966794 411.2268949974686 411.87128633322675 414.10988506129854C408.5894395267855 416.9928751251285 407.50338599737023 416.38415995110677 400.92052870625935 416.7927731798317C394.33767141514846 417.20138640855674 382.23499745428234 419.83393943015494 380.2735713358946 416.07122855917856C378.31214521750684 412.3085176882022 387.4009831147383 403.8943583069922 391.5056833379983 398.73176099914514C395.61038356125823 393.56916369129806 394.32765209667383 394.6959993679971 399.9761324075425 391.2907614815125C405.6246127184111 387.88552359502796 415.13979279482714 379.9566901040326 418.6183888301677 382.38661914401916C422.0969848655083 384.81654818400574 418.07903973070665 396.3454071406816 416.67339337717726 402.9544208734481C415.26774702364787 409.5634346062146 415.15313313966794 411.2268949974686 411.87128633322675 414.10988506129854 "></path></g></svg>